<?xml version="1.0" encoding="UTF-8"?>
<svg id="Calque_1" xmlns="http://www.w3.org/2000/svg" version="1.1" viewBox="0 0 40 10.85">
  <!-- Generator: Adobe Illustrator 30.3.0, SVG Export Plug-In . SVG Version: 2.1.3 Build 182)  -->
  <defs>
    <style>
      .st0 {
        fill: #fff;
      }

      .st1 {
        fill: #81ae45;
      }

      .st2 {
        fill: #2c578b;
      }

      .st3 {
        fill: #1e3562;
      }

      .st4 {
        fill: #10182b;
      }
    </style>
  </defs>
  <path class="st1" d="M6.71.48l.48.38.6.49s.02.02.02.04v2s0,.01-.01.01c0,0,0,0,0,0l-.77-.38s-.01,0-.01,0c0,0,0,0,0,0v2.86s0,.03-.02.04l-.07.06-.79.7s0,0-.02.01V0s.59.48.59.48Z"/>
  <path class="st2" d="M3.39,2.86s0,.06,0,.09c0,.05,0,.07,0,.09,0,.82,0,1.64,0,2.48,0,.44,0,.99,0,1.65,0,.2,0,.39,0,.57,0,0,0,0,0,0h0s0,0,0,0v-.09s0-.01.01-.01c0,0,0,0,0,0,.03,0,.06,0,.08.02l-.09.09s-.01.03,0,.04l.14.16.32.32.61.62s0,.01,0,.02c0,0,0,0,0,0-.43.15-.87.19-1.33.17-.26-.01-.48-.04-.64-.09-.12-.03-.28-.07-.41-.12-.2-.07-.4-.16-.6-.28-.03-.02-.05-.05-.05-.09,0-1.27,0-2.27,0-3.01,0-.34,0-.6,0-.76,0-.23,0-.42,0-.61,0-.01,0-.03.02-.03l1.92-1.2ZM2.76,4.12l-.51.3s-.03.03-.03.04v.71s0,.02.02.02c0,0,0,0,0,0l.5-.3s.02-.02.02-.04v-.73s0,0,0,0c0,0,0,0,0,0ZM2.23,6.53s0,0,0,0c0,0,0,0,0,0l.53-.29s0,0,0,0v-.76s0,0,0,0c0,0,0,0,0,0l-.53.32s0,0,0,0v.74ZM2.77,6.88s0-.01-.01-.01c0,0,0,0,0,0l-.52.27s0,0,0,0v.78s0,.01.01.01c0,0,0,0,0,0l.52-.3s0,0,0,0v-.75Z"/>
  <path class="st1" d="M3.81,3.35c.05.06.11.12.16.17.02.02.03.05.03.08,0,1.14,0,2.28,0,3.41,0,.04,0,.07,0,.11,0,.02,0,.03-.02.04-.16.16-.32.32-.49.48-.03-.01-.05-.02-.08-.02,0,0-.01,0-.01.01,0,0,0,0,0,0v.09s0,0,0,0h0s0,0,0,0c0-.18,0-.38,0-.57,0-.66,0-1.21,0-1.65,0-.83,0-1.66,0-2.48,0-.01,0-.04,0-.09,0-.02,0-.05,0-.09l.42.48Z"/>
  <ellipse class="st0" cx="27.05" cy="3.96" rx=".44" ry=".46" transform="translate(21.36 30.7) rotate(-86.3)"/>
  <path class="st0" d="M15.85,6.94c-.06.24-.18.43-.36.57-.27.21-.59.33-.96.35-.58.05-1.22-.08-1.69-.43-.05-.04-.09-.08-.13-.12,0,0,0-.02,0-.03l.35-.51s.02-.01.03,0c0,0,0,0,0,0,.45.33.95.48,1.5.4.33-.05.58-.22.54-.59-.03-.31-.41-.4-.66-.46-.14-.03-.37-.07-.56-.12-.08-.02-.15-.04-.2-.05-.19-.05-.36-.13-.52-.23-.33-.22-.44-.57-.42-.96.05-.73.68-1.13,1.35-1.18.27-.02.56-.01.83.06.29.08.56.21.78.41,0,0,0,.01,0,.02l-.35.56s0,0-.01,0c0,0,0,0,0,0-.35-.33-.81-.44-1.28-.37-.26.04-.53.19-.56.48-.02.24.14.39.36.48.11.04.21.08.33.1.45.1.77.14,1.12.33.49.26.65.77.51,1.28Z"/>
  <path class="st2" d="M7.45,5.52v-1.92s0-.02.02-.02c0,0,0,0,0,0l1.45.57s.01.01,0,.02c0,0,0,0,0,0l-1.45,1.35s-.02,0-.02,0c0,0,0,0,0-.01Z"/>
  <path class="st1" d="M30.27,3.6c.42,0,.8.13,1.14.37.07.05.16.12.28.23.01,0,.02.02.03.03,0,0,0,.01,0,.02l-.45.54s-.02,0-.03,0c0,0,0,0,0,0-.17-.17-.36-.29-.59-.38-.28-.09-.56-.09-.84-.03-.53.13-.88.57-.95,1.1-.05.35,0,.73.17,1.04.18.32.52.54.89.6.5.08.95-.06,1.34-.44l.49.49s0,0,0,.01l-.08.09c-.36.34-.79.53-1.28.57-.3.03-.6,0-.89-.08-.79-.22-1.33-.89-1.42-1.7-.01-.09-.02-.15-.03-.19,0-.32.04-.62.14-.92.31-.89,1.15-1.39,2.08-1.36Z"/>
  <path class="st0" d="M26.07,3.66v3.66s0,.43,0,.43c0,0,0,.01-.01.01h-.68s-.01,0-.01-.01h0v-.36s0,0,0,0c0,0,0,0,0,0l-.1.12c-.18.17-.38.27-.6.32-.13.02-.26.02-.39.02-.17,0-.33-.05-.48-.12-.61-.28-.91-.89-.86-1.56.01-.13.03-.24.06-.34.13-.44.46-.82.89-.98.21-.08.43-.1.67-.08.33.04.59.19.79.45,0,0,0,0,.01,0,0,0,0,0,0,0v-1.6s0-.01.01-.01h.7s.01,0,.01.01v.03ZM23.65,6.36c.01.42.26.75.69.82.8.13,1.24-.67.89-1.33-.06-.11-.14-.2-.24-.27-.17-.13-.36-.16-.56-.15-.49.04-.8.46-.77.93Z"/>
  <path class="st1" d="M6.72,8.72c-.37.34-.69.62-.96.86-.02.02-.05.03-.08.04-.05.01-.1.03-.15.04l-1.87-1.89s0-.03,0-.04h0c.32-.31.63-.6.91-.88.08-.08.17-.19.29-.21.14-.03.24.04.35.14.07.07.16.15.27.23.25.2.47.39.68.56,0,0,.02,0,.03,0,.39-.36.97-.84,1.19-1.03.11-.09.37-.32.8-.68.7-.59,1.33-1.11,1.9-1.59.06-.05.12-.1.19-.16.06-.04.11-.07.16-.06.09,0,.16.07.15.17,0,.06-.02.11-.06.15-.41.58-.69.98-.85,1.18-.04.05-.15.19-.34.42-.04.05-.08.09-.12.13-.25.3-.43.51-.52.61-.3.33-.59.63-.88.92-.28.27-.47.46-.58.56-.11.1-.29.27-.54.5Z"/>
  <path class="st1" d="M39.99,5.76c0,.06.01.13.01.19,0,.6,0,1.19,0,1.79,0,0,0,.01-.01.01h-.64s-.07,0-.07,0c0,0-.01,0-.01-.01,0-.58,0-1.1,0-1.55,0-.29-.06-.59-.35-.71-.22-.09-.47-.04-.64.13-.14.15-.19.35-.19.56,0,.2,0,.34,0,.42v1.14s0,.01-.02.01h-.69s0,0,0,0c0-.56,0-.94,0-1.16,0-.24,0-.42,0-.54,0-.13-.04-.26-.11-.37-.14-.24-.48-.3-.72-.18-.28.14-.35.44-.36.74,0,.5,0,.99,0,1.5,0,0,0,.01-.01.01h-.7s0,0,0,0h0v-2.89s0-.02.02-.02h0c.19,0,.4,0,.64,0,.02,0,.03,0,.03.03l.02.32s0,.01.01.01c0,0,0,0,0,0,.25-.31.65-.46,1.04-.41.32.05.55.21.7.48,0,0,0,0,0,0,0,0,0,0,0,0,.18-.27.43-.43.76-.48.46-.07.93.09,1.15.52.06.12.11.28.13.46Z"/>
  <path class="st0" d="M21.74,7.06c0-.26,0-.52,0-.78,0-.15-.01-.27-.03-.36-.06-.31-.31-.49-.62-.5-.4,0-.76.31-.75.72,0,.06,0,.12,0,.19v1.41s0,0-.01,0h-.7s-.01,0-.01-.01v-2.9s0,0,0,0h.67s.01,0,.01,0l.03.34s0,.01.02.01c0,0,0,0,0,0,.17-.2.38-.33.61-.38.73-.17,1.35.21,1.47.96.01.08.02.24.02.5,0,.68,0,1.17,0,1.47,0,.01,0,.02-.02.02h-.68s-.02,0-.02-.02v-.68Z"/>
  <path class="st1" d="M35.02,6.65c-.04.15-.09.3-.17.44-.33.55-.89.79-1.52.75-.7-.05-1.27-.56-1.38-1.26-.11-.74.24-1.41.94-1.7.23-.09.52-.12.76-.1.42.03.8.23,1.07.55.3.36.39.86.3,1.32ZM33.94,7.06c.1-.07.19-.15.25-.26.22-.35.18-.78-.08-1.1-.2-.24-.54-.32-.83-.24-.53.14-.74.75-.53,1.23.14.31.41.49.75.49.16,0,.31-.04.45-.13Z"/>
  <path class="st0" d="M16.49,4.83h.34s.01.01.01.02c.05.16.09.26.11.3.24.58.48,1.16.71,1.73,0,0,0,0,.01,0,0,0,0,0,0,0l.29-.75.52-1.29s0-.01.02-.01h.37s.4,0,.4,0c0,0,.01,0,.01.01,0,0,0,0,0,0l-.16.36-1.66,3.8s-.01.02-.02.02h-.74s0,0,0,0c0,0,0,0,0,0l.58-1.31s0-.02,0-.03l-1.25-2.83s0-.01,0-.01c0,0,0,0,0,0h.46Z"/>
  <rect class="st0" x="26.7" y="4.84" width=".72" height="2.92" rx=".36" ry=".36"/>
  <path class="st2" d="M1.12,8.85c.16.16.32.28.46.38.47.3.98.48,1.52.61.44.1.89.14,1.34.14.16,0,.33-.01.48-.03.6-.05,1.21-.24,1.75-.49.01,0,.07-.03.17-.08.05-.02.11-.05.17-.09.39-.22.77-.49,1.14-.82.11-.09.18-.16.2-.19,0,0,0,0,0,0,.03-.02.06-.05.08-.08,0,0,0,0,0,0,.18-.18.36-.37.52-.57.31-.38.59-.8.84-1.25,0,0,.01-.02.02-.02,0,0,.01,0,.02,0,0,0,0,0,0,0,0,.09,0,.2,0,.32-.05.56-.22,1.09-.52,1.59-.11.18-.22.34-.34.5-.05.06-.13.16-.24.28-.09.11-.18.19-.26.26-.3.27-.58.49-.86.66-.82.49-1.78.8-2.74.87-1.21.09-2.47-.1-3.51-.76-.42-.27-.8-.64-1.04-1.07-.16-.28-.26-.58-.31-.9-.1-.63.06-1.33.36-1.9.12-.22.26-.44.44-.65.07-.09.14-.15.24-.25,0,0,.01-.01.02-.01,0,0,.01,0,.01,0,0,0,0,0,0,0-.08.14-.15.27-.21.38-.08.13-.13.26-.17.38-.06.19-.15.46-.19.69-.04.3-.05.57-.02.83.03.27.13.54.26.78.1.18.22.35.37.5Z"/>
  <path class="st1" d="M5.3,9.69c-.64.1-1.28.1-1.91,0-.12-.02-.24-.04-.35-.07-.48-.1-.93-.29-1.36-.57-.08-.05-.16-.11-.24-.18,0,0,0,0,0,0,0,0,0,0,0,0,.86.4,1.86.5,2.78.3.14-.03.27-.07.4-.12.02,0,.04,0,.05.01l.64.64Z"/>
  <path class="st3" d="M6.12,0v6.7s-.02,0-.02,0c0,0,0,0,0,.02,0,.01,0,.02-.01.03-.04.03-.13.11-.27.24-.01.01-.03.01-.04,0-.12-.11-.26-.23-.41-.34-.03-.02-.06-.05-.09-.07-.11-.11-.2-.16-.37-.15-.1,0-.19.05-.27.12-.1.09-.19.18-.29.26l-.33.31s0-.07,0-.11c0-1.14,0-2.28,0-3.41,0-.03,0-.06-.03-.08-.05-.06-.1-.12-.16-.17h.01s0,0,0-.01c0,0,0,0,0,0-.02-.04-.03-.07-.03-.11,0-.41,0-.79,0-1.12,0-.06,0-.17,0-.31,0-.11,0-.21,0-.31,0-.03.01-.05.04-.07.18-.11.44-.27.77-.49,0,0,.05-.03.12-.08.17-.11.28-.17.33-.2.12-.07.28-.17.47-.31.21-.14.41-.26.57-.34ZM5.25,2.31v-.77s0-.02-.02-.02c0,0,0,0,0,0l-.53.32s-.02.02-.02.04v.77s0,.01.01.01c0,0,0,0,0,0,.1-.07.22-.13.35-.21.05-.03.11-.06.18-.09.02,0,.03-.03.03-.05ZM5.25,3s0,0-.01,0c0,0,0,0,0,0-.26.14-.39.21-.53.3-.02.01-.03.03-.03.06v.73s0,.02.02.02c0,0,0,0,0,0l.55-.31s.02-.02.02-.03v-.75s-.01,0-.01,0h0ZM4.7,5.54l.52-.31s.03-.03.03-.06c0-.11,0-.21,0-.3,0-.06,0-.13,0-.2,0-.05,0-.13,0-.24,0-.01,0-.02-.02-.02,0,0,0,0-.01,0l-.52.31s-.03.03-.03.05c0,.18,0,.37-.01.57,0,0,0,0,0,0v.18s.02.01.03.01c0,0,0,0,0,0Z"/>
  <g>
    <path class="st4" d="M5.25,2.31s-.01.04-.03.05c-.07.03-.13.06-.18.09-.13.08-.25.14-.35.21,0,0-.01,0-.02,0,0,0,0,0,0,0v-.77s0-.03.02-.04l.53-.32s.02,0,.02,0c0,0,0,0,0,0v.77Z"/>
    <path class="st4" d="M5.25,3h0s0,0,0,0v.75s0,.03,0,.03l-.55.31s-.02,0-.02,0c0,0,0,0,0,0v-.73s.01-.04.03-.06c.14-.1.28-.16.53-.3,0,0,.01,0,.01,0,0,0,0,0,0,0Z"/>
    <path class="st4" d="M2.76,4.12s0,0,.01,0c0,0,0,0,0,0v.73s0,.03-.02.04l-.5.3s-.02,0-.03,0c0,0,0,0,0-.01v-.71s0-.04.03-.04l.51-.3Z"/>
    <path class="st4" d="M4.7,5.54s-.01,0-.02,0c0,0,0,0,0,0v-.18s-.01,0-.01,0c.02-.2.02-.39.01-.57,0-.02,0-.04.03-.05l.52-.31s.02,0,.03,0c0,0,0,0,0,.01,0,.11,0,.19,0,.24,0,.07,0,.14,0,.2,0,.09,0,.19,0,.3,0,.02,0,.04-.03.06l-.52.31Z"/>
    <path class="st4" d="M2.23,6.53v-.74s0,0,0,0l.53-.32s0,0,.01,0c0,0,0,0,0,0v.76s0,0,0,0l-.53.29s0,0-.01,0c0,0,0,0,0,0Z"/>
    <path class="st4" d="M2.77,6.88v.75s0,0,0,0l-.52.3s-.01,0-.01,0c0,0,0,0,0,0v-.78s0,0,0,0l.52-.27s.01,0,.01,0c0,0,0,0,0,0Z"/>
  </g>
</svg>